# xmcd
#
# Track frame offsets: 
#        150
#        11022
#        30465
#        46572
#        61982
#        81830
#        101120
#        118272
#        135625
#        152127
#        170557
#        189480
#        207875
#        234877
#
# Disc length: 4440 seconds
#
# Revision: 2
# Processed by: cddbd v1.5.2PL0 Copyright (c) Steve Scherf et al.
# Submitted via: ExactAudioCopy v0.99pb5
#
DISCID=b111560e
DTITLE=TLC - 3D
DYEAR=2002
DGENRE=Pop
TTITLE0=3D (Intro)
TTITLE1=Quickie
TTITLE2=Girl talk
TTITLE3=Turntable
TTITLE4=In your arms tonight
TTITLE5=Over me
TTITLE6=Hands up
TTITLE7=Damaged
TTITLE8=Dirty dirty
TTITLE9=So so dumb
TTITLE10=Good love
TTITLE11=Hey hey hey hey
TTITLE12=Give it to me while it's hot
TTITLE13=Data
EXTD=
EXTT0=
EXTT1=
EXTT2=
EXTT3=
EXTT4=
EXTT5=
EXTT6=
EXTT7=
EXTT8=
EXTT9=
EXTT10=
EXTT11=
EXTT12=
EXTT13=
PLAYORDER=
